{"title":"Boogie Woogie 2009.BRRip.XviD.Ac3.Feel-Free","uid":5833332,"size":1800658940,"categoryP":"video","categoryS":"movies","magnet":"?xt=urn:btih:16a99108c70ebfece4aad1e07ab30df4518b8df5&amp;dn=Boogie+Woogie+2009.BRRip.XviD.Ac3.Feel-Free&amp;tr=udp%3A%2F%2Ftracker.openbittorrent.com%3A80&amp;tr=udp%3A%2F%2Fopen.demonii.com%3A1337&amp;tr=udp%3A%2F%2Ftracker.coppersurfer.tk%3A6969&amp;tr=udp%3A%2F%2Fexodus.desync.com%3A6969","seeders":0,"leechers":0,"uploader":"neon","files":8,"time":1284643848,"description":"\nGenre:Comedy | Drama\nLanguage: English\n &lt;a href=&quot; http://www.imdb.com/title/tt1134664/&quot; rel=&quot;nofollow&quot; target=&quot;_NEW&quot;&gt; http://www.imdb.com/title/tt1134664/&lt;/a&gt;\nSource:Bluray X264-DIMENSION\n\nGeneral\nComplete name :Boogie Woogie 2009.BRRip.XviD.Ac3.Feel-Free\nFormat : AVI\nFormat/Info : Audio Video Interleave\nFile size : 1.68 GiB\nDuration : 1h 34mn\nOverall bit rate : 2 542 Kbps\nVideo #0\nID : 0\nFormat : MPEG-4 Visual\nFormat profile : AdvancedSimple@L5\nFormat settings, BVOP : Yes\nFormat settings, QPel : No\nFormat settings, GMC : No warppoints\nFormat settings, Matrix : Default (H.263)\nMuxing mode : Packed bitstream\nCodec ID : XVID\nCodec ID/Hint : XviD\nDuration : 1h 34mn\nBit rate : 2 084 Kbps\nWidth : 652 pixels\nHeight : 352 pixels\nDisplay aspect ratio : 1.852\nFrame rate : 23.976 fps\nResolution : 24 bits\nColorimetry : 4:2:0\nScan type : Progressive\nBits/(Pixel*Frame) : 0.379\nStream size : 1.38 GiB (82%)\nWriting library : XviD 1.2.1 (UTC 2008-12-04)\nAudio #1\nID : 1\nFormat : AC-3\nFormat/Info : Audio Coding 3\nCodec ID : 2000\nDuration : 1h 34mn\nBit rate mode : Constant\nBit rate : 448 Kbps\nChannel(s) : 6 channels\nChannel positions : Front: L C R, Surround: L R, LFE\nSampling rate : 48.0 KHz\nStream size : 303 MiB (18%)\nAlignment : Split accross interleaves\nInterleave, duration : 42 ms (1.00 video frame)\nInterleave, preload duration : 500 ms\n\nPlot\nA comedy of manners set against the backdrop of contemporary London and the international art scene","torrent":{"xt":"urn:btih:16a99108c70ebfece4aad1e07ab30df4518b8df5","amp;dn":"Boogie+Woogie+2009.BRRip.XviD.Ac3.Feel-Free","amp;tr":["udp%3A%2F%2Ftracker.openbittorrent.com%3A80","udp%3A%2F%2Fopen.demonii.com%3A1337","udp%3A%2F%2Ftracker.coppersurfer.tk%3A6969","udp%3A%2F%2Fexodus.desync.com%3A6969"],"infoHash":"16a99108c70ebfece4aad1e07ab30df4518b8df5","infoHashBuffer":{"type":"Buffer","data":[22,169,145,8,199,14,191,236,228,170,209,224,122,179,13,244,81,139,141,245]},"announce":[],"urlList":[]}}